<?xml version="1.0" standalone="no"?>
<!DOCTYPE svg PUBLIC "-//W3C//DTD SVG 20010904//EN"
 "http://www.w3.org/TR/2001/REC-SVG-20010904/DTD/svg10.dtd">
<svg version="1.0" xmlns="http://www.w3.org/2000/svg"
 width="218.000000pt" height="218.000000pt" viewBox="0 0 218.000000 218.000000"
 preserveAspectRatio="xMidYMid meet">
<metadata>
Created by potrace 1.14, written by Peter Selinger 2001-2017
</metadata>
<g transform="translate(0.000000,218.000000) scale(0.100000,-0.100000)"
fill="#000000" stroke="none">
<path d="M884 2151 c-216 -59 -388 -225 -450 -436 -21 -72 -24 -225 -5 -305 7
-30 30 -89 50 -131 l37 -76 -48 -44 c-63 -56 -114 -133 -152 -228 -27 -69 -30
-88 -32 -206 -2 -119 -5 -135 -31 -190 -25 -53 -28 -71 -28 -155 0 -85 3 -101
29 -155 50 -102 160 -192 257 -210 58 -11 89 -13 89 -5 0 4 -23 10 -51 13
-181 22 -321 188 -313 372 2 57 36 169 54 180 5 3 7 49 5 103 -8 193 51 343
187 474 32 31 55 59 50 62 -17 10 -70 131 -87 195 -17 65 -21 175 -10 246 18
113 79 225 171 318 72 73 145 119 246 154 102 36 269 38 373 4 141 -47 276
-153 350 -276 105 -176 108 -417 6 -598 -11 -21 -21 -39 -21 -40 0 -1 27 0 60
1 84 5 148 -19 214 -79 69 -63 98 -127 98 -220 0 -165 -121 -289 -289 -297
-40 -2 -73 -6 -73 -8 0 -3 11 -21 24 -42 52 -80 66 -205 32 -300 -51 -142
-205 -247 -356 -241 -69 3 -147 31 -211 75 -32 22 -42 24 -119 19 -63 -4 -89
-9 -104 -24 -36 -32 -125 -72 -177 -78 -27 -3 -49 -10 -49 -15 0 -4 10 -6 22
-4 13 3 40 8 60 11 38 6 119 46 153 75 14 13 43 19 98 22 65 4 82 2 102 -14
13 -10 52 -31 87 -48 53 -25 75 -30 140 -30 176 0 325 106 372 264 22 72 15
189 -14 251 -13 28 -24 54 -24 58 -1 5 22 10 49 11 103 5 214 82 266 184 33
66 34 185 1 257 -27 58 -80 117 -137 150 -40 24 -134 44 -174 38 -26 -4 -26
-7 4 58 37 83 55 165 55 259 0 174 -55 305 -180 431 -127 127 -243 178 -425
185 -87 3 -125 0 -181 -15z"/>
<path d="M912 2054 c-242 -65 -402 -269 -402 -514 0 -399 423 -651 787 -469
157 79 275 257 286 433 6 85 -16 195 -55 273 -66 134 -219 252 -366 282 -72
15 -186 13 -250 -5z m158 -79 c0 -9 12 -38 26 -66 14 -28 23 -53 20 -56 -2 -3
-25 9 -50 26 l-44 31 -23 -37 c-21 -34 -22 -37 -5 -47 9 -6 57 -39 107 -73 49
-35 93 -63 97 -63 7 0 42 53 42 63 0 3 -26 24 -57 46 l-57 40 86 -5 c80 -5 87
-4 92 14 14 45 32 45 74 3 22 -22 51 -60 66 -85 29 -49 65 -171 53 -182 -3 -4
-18 1 -32 10 -24 16 -29 15 -163 -38 -75 -29 -154 -60 -174 -67 -36 -12 -38
-15 -39 -59 -2 -113 -9 -259 -14 -297 -6 -43 -6 -43 -48 -43 -104 1 -213 47
-295 127 -66 63 -57 61 50 -13 l77 -54 20 29 c12 16 21 34 21 39 0 5 -22 24
-50 42 -27 18 -50 34 -50 37 0 2 30 4 68 3 37 -1 72 -1 78 -1 12 1 94 124 94
141 0 4 -16 18 -35 30 -49 30 -67 58 -53 83 8 17 6 23 -13 38 -32 25 -37 24
-45 -7 -4 -14 -17 -37 -30 -51 -13 -14 -24 -30 -24 -34 0 -5 35 -32 78 -61
l77 -53 -70 -5 c-38 -3 -75 -4 -81 -2 -6 2 -24 34 -39 73 -15 38 -30 67 -33
65 -4 -2 -16 -20 -26 -40 l-19 -36 31 -71 31 -70 -51 37 -51 38 -22 -28 -23
-28 -23 58 c-19 49 -23 78 -23 169 0 103 2 114 31 177 73 156 234 265 396 267
36 1 47 -3 47 -14z m178 -30 c28 -13 52 -26 52 -29 0 -4 -29 -6 -64 -6 -63 0
-64 1 -75 31 -6 18 -11 34 -11 36 0 7 40 -7 98 -32z m236 -537 c-15 -52 -57
-126 -92 -163 -36 -40 -103 -95 -115 -95 -3 0 -4 48 -4 107 l2 106 95 33 c117
40 123 41 114 12z"/>
<path d="M993 1738 c-19 -21 -63 -100 -63 -112 0 -3 9 -10 20 -16 18 -9 22 -6
36 30 9 22 23 40 31 40 9 0 13 -6 10 -14 -24 -62 -28 -98 -12 -122 8 -13 19
-24 23 -25 4 0 16 -2 26 -4 12 -2 30 8 48 27 27 29 28 32 12 49 -13 14 -20 16
-30 8 -19 -16 -32 -3 -27 25 l5 25 37 -24 36 -25 17 22 c10 13 18 29 18 35 0
15 -128 103 -151 103 -8 0 -25 -10 -36 -22z"/>
<path d="M1530 1140 c-96 -45 -144 -118 -144 -220 0 -140 102 -242 243 -241
67 0 91 8 147 49 109 80 125 255 33 352 -71 76 -191 101 -279 60z m218 -34
c84 -53 124 -165 92 -261 -28 -86 -115 -147 -210 -147 -245 -2 -317 319 -95
424 58 27 156 20 213 -16z"/>
<path d="M1440 915 c0 -45 1 -46 28 -43 24 3 27 7 27 43 0 36 -3 40 -27 43
-27 3 -28 2 -28 -43z m40 15 c0 -5 -2 -10 -4 -10 -3 0 -8 5 -11 10 -3 6 -1 10
4 10 6 0 11 -4 11 -10z m0 -41 c0 -6 -4 -7 -10 -4 -5 3 -10 11 -10 16 0 6 5 7
10 4 6 -3 10 -11 10 -16z"/>
<path d="M1519 943 c0 -10 -2 -26 -4 -35 -4 -21 18 -41 42 -36 28 5 38 88 11
88 -5 0 -9 -12 -8 -27 3 -48 1 -58 -11 -46 -5 5 -11 24 -11 42 -1 32 -17 44
-19 14z"/>
<path d="M1602 918 c3 -39 6 -43 31 -46 17 -2 27 2 28 10 5 56 4 78 -3 78 -9
0 -11 -13 -8 -47 1 -15 -4 -23 -14 -23 -12 0 -16 10 -16 35 0 19 -5 35 -11 35
-6 0 -9 -17 -7 -42z"/>
<path d="M1680 916 c0 -25 5 -46 10 -46 6 0 10 8 10 18 1 16 1 16 14 0 19 -26
22 -23 22 25 -1 38 -3 42 -28 45 -27 3 -28 2 -28 -42z m40 14 c0 -5 -4 -10
-10 -10 -5 0 -10 5 -10 10 0 6 5 10 10 10 6 0 10 -4 10 -10z"/>
<path d="M1758 948 c7 -7 12 -27 12 -45 0 -18 5 -33 10 -33 6 0 10 16 10 35 0
19 5 35 10 35 6 0 10 5 10 10 0 6 -14 10 -32 10 -25 0 -29 -3 -20 -12z"/>
<path d="M1186 666 c-85 -29 -140 -76 -178 -154 -75 -151 -15 -323 140 -399
73 -36 183 -39 252 -6 119 55 183 156 181 285 -2 196 -206 337 -395 274z m-68
-267 c2 -20 -2 -28 -17 -32 -12 -3 -21 -13 -21 -22 0 -9 -4 -14 -8 -11 -6 4
-8 75 -3 94 1 2 11 2 24 0 15 -2 23 -11 25 -29z m80 -11 c2 -28 -1 -39 -15
-47 -25 -13 -46 1 -50 34 -5 33 14 57 41 53 16 -2 22 -11 24 -40z m69 34 c18
-12 23 -59 8 -72 -21 -18 -49 -19 -55 -3 -3 8 -4 30 -2 49 4 34 22 43 49 26z
m50 -36 c-3 -64 -17 -69 -17 -8 0 29 4 52 10 52 5 0 8 -20 7 -44z m39 7 c1
-16 2 -32 3 -37 1 -5 7 -3 15 3 7 6 12 22 11 36 -2 14 0 27 5 30 4 3 10 -11
12 -31 5 -42 -12 -65 -42 -57 -16 4 -20 14 -20 51 0 48 11 51 16 5z m89 20 c6
-17 7 -17 20 1 8 10 18 16 22 13 11 -7 10 -83 0 -93 -6 -6 -11 9 -9 27 1 4 -8
9 -18 12 -15 4 -20 0 -20 -13 0 -11 -4 -22 -10 -25 -6 -4 -10 13 -10 44 0 51
12 67 25 34z"/>
<path d="M1080 395 c0 -8 5 -15 10 -15 6 0 10 7 10 15 0 8 -4 15 -10 15 -5 0
-10 -7 -10 -15z"/>
<path d="M1154 395 c-4 -8 -3 -23 1 -32 6 -17 7 -17 20 0 14 19 10 47 -6 47
-5 0 -12 -7 -15 -15z"/>
<path d="M1240 378 c0 -29 2 -31 15 -17 9 9 13 23 9 32 -10 28 -24 19 -24 -15z"/>
<path d="M553 669 c-175 -32 -283 -213 -227 -382 25 -77 112 -160 189 -183
195 -56 382 75 386 271 4 187 -162 327 -348 294z m136 -45 c180 -53 239 -286
106 -419 -53 -53 -116 -78 -191 -78 -78 1 -138 27 -187 83 -51 56 -68 99 -68
172 -1 107 55 189 163 238 52 24 107 25 177 4z"/>
<path d="M402 413 c-17 -32 -24 -83 -13 -83 6 0 11 5 11 10 0 14 28 12 33 -2
2 -7 8 -10 12 -6 9 9 -11 84 -25 93 -5 3 -13 -2 -18 -12z"/>
<path d="M450 419 c0 -5 5 -9 10 -9 6 0 10 -18 10 -40 0 -22 5 -40 10 -40 6 0
10 18 10 40 0 22 5 40 10 40 25 0 7 15 -20 16 -16 1 -30 -2 -30 -7z"/>
<path d="M526 423 c-3 -4 -6 -21 -6 -38 0 -37 20 -59 47 -52 16 4 15 6 -4 12
-26 8 -31 25 -8 25 8 0 15 5 15 10 0 6 -7 10 -15 10 -8 0 -15 5 -15 10 0 6 7
10 15 10 8 0 15 4 15 8 0 9 -36 13 -44 5z"/>
<path d="M592 383 c3 -41 6 -48 26 -51 12 -2 22 1 22 7 0 6 -7 11 -15 11 -10
0 -15 10 -15 34 0 19 -5 38 -11 41 -7 5 -9 -9 -7 -42z"/>
<path d="M657 423 c-11 -10 -8 -93 3 -93 11 0 12 8 12 58 -1 36 -5 46 -15 35z"/>
<path d="M695 421 c-10 -9 -4 -68 7 -79 15 -15 38 -16 38 -2 0 6 -7 10 -15 10
-8 0 -15 5 -15 10 0 6 7 10 15 10 8 0 15 5 15 10 0 6 -7 10 -15 10 -8 0 -15 5
-15 10 0 6 7 10 15 10 8 0 15 4 15 9 0 10 -37 11 -45 2z"/>
<path d="M767 423 c-11 -10 -8 -93 3 -93 6 0 10 8 10 18 1 16 1 16 14 0 19
-26 22 -23 22 22 -1 45 -28 74 -49 53z m33 -34 c0 -5 -4 -9 -10 -9 -5 0 -10 7
-10 16 0 8 5 12 10 9 6 -3 10 -10 10 -16z"/>
</g>
</svg>
